<?xml version="1.0" encoding="utf-8"?>
<!-- Generator: Adobe Illustrator 21.0.0, SVG Export Plug-In . SVG Version: 6.00 Build 0)  -->
<svg version="1.1" id="Logo" xmlns="http://www.w3.org/2000/svg" xmlns:xlink="http://www.w3.org/1999/xlink" x="0px" y="0px"
	 viewBox="0 0 228.3 78.5" style="enable-background:new 0 0 228.3 78.5;" xml:space="preserve">
<style type="text/css">
	.st0{fill:#B2090A;}
	.st1{fill:#FFFFFF;}
</style>
<title>GYM_Logo</title>
<path class="st0" d="M92.3,24.2l-6,19.6H64c-0.2,0-0.5-0.1-0.7-0.3c-0.2-0.2-0.4-0.4-0.6-0.7c-0.2-0.3-0.3-0.5-0.4-0.8
	c-0.1-0.3-0.1-0.5-0.2-0.8c0-0.1,0-0.2,0.1-0.4l6.2-20.3h6.2l2.1,3.2l-3.5,11.4h6.6l2.6-8.5h-1.5l-3.9-6.2h12.8L92.3,24.2z M69,18.6
	h4.3l1.2,1.9h-6L69,18.6z M69.7,16.5h2.3l1.2,1.8h-4L69.7,16.5z M70.3,14.4h9.1L78.9,16h-9.1L70.3,14.4z M70.9,12.4h9.2l-0.5,1.5
	h-9.2L70.9,12.4z M71.6,10.3h9.1l-0.4,1.3h-9.1L71.6,10.3z M72.2,8.3h9.2L81,9.4h-9.2L72.2,8.3z M72.8,6.2h25l-0.3,1h-25L72.8,6.2z
	 M73.4,4.1h24.9L98.1,5H73.2L73.4,4.1z M99,2.3l-0.2,0.5h-25l0.2-0.7h25C99,2.1,99,2.2,99,2.3z M98.6,0.6H74.5L74.7,0h23.6
	C98.4,0.2,98.5,0.4,98.6,0.6L98.6,0.6z M88,18.3H75.4l-0.1-0.1H88L88,18.3z M75.6,18.6h12.7l1.3,1.9H76.8L75.6,18.6z M87.9,8.3h9.2
	l-0.3,1.1h-9.2L87.9,8.3z M87.7,10.3h8.8l-0.4,1.3h-6.9L87.7,10.3z M90.2,12.4h5.8l-0.5,1.5h-3.5L90.2,12.4z M92.7,14.4h2.6L94.7,16
	h-0.2L92.7,14.4z"/>
<path class="st0" d="M96.2,30.6l3.1-10h9.2l-1.3,4.4h6.5l1.3-4.4h9.2l-4,13h-7.9l-3.1,10.2H100l3.1-10.2H98c-0.2,0-0.5-0.1-0.7-0.3
	c-0.2-0.2-0.4-0.4-0.6-0.7c-0.2-0.3-0.3-0.5-0.4-0.8c-0.1-0.3-0.1-0.5-0.2-0.8C96.1,30.9,96.2,30.8,96.2,30.6z M99.9,18.6h9.2
	l-0.6,1.9h-9.2L99.9,18.6z M100.6,16.5h9.2l-0.5,1.8H100L100.6,16.5z M101.2,14.4h9.2l-0.5,1.6h-9.2L101.2,14.4z M101.1,0h13.7
	l-0.2,0.6h-13.2L101.1,0z M101.8,12.4h9.2l-0.5,1.5h-9.2L101.8,12.4z M102.4,10.3h9.2l-0.4,1.3H102L102.4,10.3z M102.1,2.1h12
	l-0.2,0.7h-11.5L102.1,2.1z M103,8.3h9.2l-0.4,1.1h-9.2L103,8.3z M103.1,4.1h10.4L113.3,5h-9.7L103.1,4.1z M103.7,6.2h9.2l-0.3,1
	h-9.2L103.7,6.2z M115.6,18.6h9.2l-0.6,1.9H115L115.6,18.6z M116.3,16.5h9.2l-0.6,1.8h-9.2L116.3,16.5z M116.9,14.4h9.2l-0.5,1.6
	h-9.2L116.9,14.4z M117.5,12.4h9.2l-0.5,1.5h-9.2L117.5,12.4z M118.2,10.3h9.2l-0.4,1.3h-9.2L118.2,10.3z M118.8,8.3h9.2l-0.4,1.1
	h-9.2L118.8,8.3z M119.4,6.2h9.2l-0.3,1h-9.2L119.4,6.2z M120,4.1h9.2L129,5h-9.2L120,4.1z M120.6,2.1h9.2l-0.2,0.7h-9.2L120.6,2.1z
	 M121.3,0h9.2l-0.2,0.6h-9.2L121.3,0z"/>
<path class="st0" d="M123.2,43.8l7.1-23.2h32.5l-7.1,23.2h-9.2l5.8-18.7l-4.9,7.4c0,0-0.1,0.1-0.2,0.2c-0.1,0-0.2,0.1-0.2,0.2
	c-0.2,0.2-0.3,0.3-0.4,0.4c-0.2,0.2-0.3,0.3-0.5,0.5l-7.3,6l-0.2-14.2l-0.3-0.8l-5.8,19H123.2z M130.9,18.6h32.5l-0.6,1.9h-32.4
	L130.9,18.6z M146.9,17.9l1-1.4h16.2l-0.6,1.8H131l0.6-1.8h15.2L146.9,17.9z M132.2,14.4h14.5l0.1,1.6h-15.1L132.2,14.4z M132.1,0
	h14l0.1,0.6h-13.7L132.1,0z M132.9,12.4h13.8l0.1,1.5h-14.3L132.9,12.4z M133.5,10.3h13.1l0.1,1.3h-13.5L133.5,10.3z M133.2,2.1h13
	l0.1,0.7h-12.7L133.2,2.1z M134.1,8.3h12.4l0.1,1.1h-12.8L134.1,8.3z M134.2,4.1h12.1l0.1,0.9h-11.7L134.2,4.1z M134.7,6.2h11.7
	l0.1,1h-12L134.7,6.2z M149.3,14.4h15.4l-0.5,1.6h-16.1L149.3,14.4z M150.7,12.4h14.6l-0.5,1.5h-15.1L150.7,12.4z M152.2,10.3H166
	l-0.4,1.3h-14.3L152.2,10.3z M153.6,8.3h13l-0.4,1.1h-13.4L153.6,8.3z M155,6.2h12.2l-0.3,1h-12.5L155,6.2z M156.5,4.1h11.4L167.6,5
	h-11.7L156.5,4.1z M157.9,2.1h10.5l-0.2,0.7h-10.8L157.9,2.1z M159.4,0h9.7l-0.2,0.6h-10L159.4,0z"/>
<path class="st1" d="M74.7,71.8L74.7,71.8l2.5-16.5h5.1v23.2h-3.5V61.9h-0.1l-2.5,16.6h-3.4l-2.7-16.4h-0.1v16.4H67V55.3h5.1
	L74.7,71.8z"/>
<path class="st1" d="M96.7,78.5h-3.7l-0.6-4.2H88l-0.6,4.2H84l3.7-23.2H93L96.7,78.5z M88.4,71.2h3.5l-1.7-11.7h-0.1L88.4,71.2z"/>
<path class="st1" d="M101.7,61.7L101.7,61.7l-0.1,16.8h-3.3V55.3h4.6l3.7,13.9h0.1V55.3h3.2v23.2h-3.7L101.7,61.7z"/>
<path class="st1" d="M124.4,78.5h-3.7l-0.6-4.2h-4.5l-0.6,4.2h-3.3l3.7-23.2h5.3L124.4,78.5z M116,71.2h3.5l-1.7-11.7h-0.1L116,71.2
	z"/>
<path class="st1" d="M131.5,65.6h5.1V73c0,3.7-1.9,5.8-5.4,5.8c-3.6,0-5.4-2.1-5.4-5.8V60.9c0-3.7,1.9-5.8,5.4-5.8
	c3.6,0,5.4,2.1,5.4,5.8v2.3h-3.4v-2.5c0-1.7-0.7-2.3-1.9-2.3s-1.9,0.6-1.9,2.3v12.5c0,1.7,0.7,2.3,1.9,2.3s1.9-0.6,1.9-2.3v-4.3
	h-1.7L131.5,65.6z"/>
<path class="st1" d="M142.6,65.1h5v3.3h-5v6.8h6.3v3.3h-9.9V55.3h9.9v3.3h-6.3V65.1z"/>
<path class="st1" d="M158.8,78.5c-0.2-0.6-0.3-1-0.3-2.8V72c0-2.1-0.7-2.9-2.4-2.9h-1.3v9.4h-3.7V55.3h5.5c3.8,0,5.4,1.8,5.4,5.3
	v1.8c0,2.4-0.8,3.9-2.4,4.7v0.1c1.8,0.8,2.4,2.5,2.4,4.9v3.6c0,1.1,0,2,0.4,2.8L158.8,78.5z M154.8,58.6v7.1h1.4
	c1.4,0,2.2-0.6,2.2-2.5V61c0-1.7-0.6-2.4-1.9-2.4H154.8z"/>
<rect id="Barra" x="61.3" y="47.3" class="st1" width="106.2" height="4.3"/>
<path id="Pesa" class="st1" d="M43.1,21.9h8c3,0,5.4,2.4,5.4,5.4v44c0,3-2.4,5.4-5.4,5.4h-8c-3,0-5.4-2.4-5.4-5.4v-44
	C37.7,24.3,40.1,21.9,43.1,21.9z"/>
<path id="Pesa-2" class="st1" d="M176.8,22.1h8c3,0,5.4,2.4,5.4,5.4v44c0,3-2.4,5.4-5.4,5.4h-8c-3,0-5.4-2.4-5.4-5.4v-44
	C171.4,24.5,173.8,22.1,176.8,22.1z"/>
<rect id="Barra-2" y="51.4" class="st1" width="18.6" height="5.5"/>
<path id="PesaMenor" class="st0" d="M26.8,31.6h3.9c2,0,3.6,1.6,3.6,3.6v28.2c0,2-1.6,3.6-3.6,3.6h-3.9c-2,0-3.6-1.6-3.6-3.6V35.2
	C23.2,33.2,24.8,31.6,26.8,31.6z"/>
<path id="PesaMenor-2" class="st0" d="M197.5,31.6h3.9c2,0,3.6,1.6,3.6,3.6v28.2c0,2-1.6,3.6-3.6,3.6h-3.9c-2,0-3.6-1.6-3.6-3.6
	V35.2C194,33.2,195.6,31.6,197.5,31.6z"/>
<rect id="Barra-3" x="209.7" y="47.1" class="st1" width="18.6" height="4.3"/>
</svg>
